#
# Bolt.obj
#
# 130 vertices
# 162 texture coordinate pairs
# 130 vertex normals
# 144 in 1 face sets
#



# 1 material libraries
mtllib Bolt.mtl



# 130 vertices
v 0.239118 0.965926 0.099046
v 0.183013 0.965926 0.183013
v 0.099046 0.965926 0.239118
v -0 0.965926 0.258819
v -0.099046 0.965926 0.239118
v -0.183013 0.965926 0.183013
v -0.239118 0.965926 0.099046
v -0.258819 0.965926 -0
v -0.239118 0.965926 -0.099046
v -0.183013 0.965926 -0.183013
v -0.099046 0.965926 -0.239118
v 0 0.965926 -0.258819
v 0.099046 0.965926 -0.239118
v 0.183013 0.965926 -0.183013
v 0.239118 0.965926 -0.099046
v 0.258819 0.965926 -0
v 0.46194 0.866025 0.191342
v 0.353553 0.866025 0.353553
v 0.191342 0.866025 0.46194
v -0 0.866025 0.5
v -0.191342 0.866025 0.46194
v -0.353553 0.866025 0.353553
v -0.46194 0.866025 0.191342
v -0.5 0.866025 -0
v -0.46194 0.866025 -0.191342
v -0.353553 0.866025 -0.353553
v -0.191342 0.866025 -0.46194
v 0 0.866025 -0.5
v 0.191342 0.866025 -0.46194
v 0.353553 0.866025 -0.353553
v 0.46194 0.866025 -0.191342
v 0.5 0.866025 -0
v 0.653281 0.707107 0.270598
v 0.5 0.707107 0.5
v 0.270598 0.707107 0.653281
v -0 0.707107 0.707107
v -0.270598 0.707107 0.653281
v -0.5 0.707107 0.5
v -0.653281 0.707107 0.270598
v -0.707107 0.707107 -0
v -0.653281 0.707107 -0.270598
v -0.5 0.707107 -0.5
v -0.270598 0.707107 -0.653281
v 0 0.707107 -0.707107
v 0.270598 0.707107 -0.653281
v 0.5 0.707107 -0.5
v 0.653281 0.707107 -0.270598
v 0.707107 0.707107 -0
v 0.800103 0.5 0.331414
v 0.612372 0.5 0.612372
v 0.331414 0.5 0.800103
v -0 0.5 0.866025
v -0.331414 0.5 0.800103
v -0.612372 0.5 0.612372
v -0.800103 0.5 0.331414
v -0.866025 0.5 -0
v -0.800103 0.5 -0.331414
v -0.612372 0.5 -0.612372
v -0.331414 0.5 -0.800103
v 0 0.5 -0.866025
v 0.331414 0.5 -0.800103
v 0.612372 0.5 -0.612372
v 0.800103 0.5 -0.331414
v 0.866025 0.5 -0
v 0.892399 0.258819 0.369644
v 0.683013 0.258819 0.683013
v 0.369644 0.258819 0.892399
v -0 0.258819 0.965926
v -0.369644 0.258819 0.892399
v -0.683013 0.258819 0.683013
v -0.892399 0.258819 0.369644
v -0.965926 0.258819 -0
v -0.892399 0.258819 -0.369644
v -0.683013 0.258819 -0.683013
v -0.369644 0.258819 -0.892399
v 0 0.258819 -0.965926
v 0.369644 0.258819 -0.892399
v 0.683013 0.258819 -0.683013
v 0.892399 0.258819 -0.369644
v 0.965926 0.258819 -0
v 0.92388 0 0.382683
v 0.707107 0 0.707106
v 0.382684 0 0.923879
v 1e-006 0 1
v -0.382683 0 0.92388
v -0.707106 0 0.707107
v -0.923879 0 0.382684
v -1 0 0
v -0.92388 0 -0.382683
v -0.707107 0 -0.707107
v -0.382684 0 -0.923879
v -0 0 -1
v 0.382683 0 -0.92388
v 0.707107 0 -0.707107
v 0.92388 0 -0.382683
v 1 0 -0
v 0.92388 -0.4 0.382683
v 0.707107 -0.4 0.707106
v 0.382684 -0.4 0.923879
v 1e-006 -0.4 1
v -0.382683 -0.4 0.92388
v -0.707106 -0.4 0.707107
v -0.923879 -0.4 0.382684
v -1 -0.4 0
v -0.92388 -0.4 -0.382683
v -0.707107 -0.4 -0.707107
v -0.382684 -0.4 -0.923879
v -0 -0.4 -1
v 0.382683 -0.4 -0.92388
v 0.707107 -0.4 -0.707107
v 0.92388 -0.4 -0.382683
v 1 -0.4 0
v 0.892399 -0.8 0.369644
v 0.683013 -0.8 0.683013
v 0.369644 -0.8 0.892399
v -0 -0.8 0.965926
v -0.369644 -0.8 0.892399
v -0.683013 -0.8 0.683013
v -0.892399 -0.8 0.369644
v -0.965926 -0.8 0
v -0.892399 -0.8 -0.369644
v -0.683013 -0.8 -0.683013
v -0.369644 -0.8 -0.892399
v 0 -0.8 -0.965926
v 0.369644 -0.8 -0.892399
v 0.683013 -0.8 -0.683013
v 0.892399 -0.8 -0.369644
v 0.965926 -0.8 0
v 0 1 -0
v 0 -7 0



# 162 texture coordinate pairs
vt 0.524059 0.146284
vt 0.518414 0.137836
vt 0.509966 0.132191
vt 0.5 0.130208
vt 0.490034 0.132191
vt 0.481586 0.137836
vt 0.475941 0.146284
vt 0.473958 0.15625
vt 0.475941 0.166216
vt 0.481586 0.174664
vt 0.490034 0.180309
vt 0.5 0.182292
vt 0.509966 0.180309
vt 0.518414 0.174664
vt 0.524059 0.166216
vt 0.526042 0.15625
vt 0.548119 0.136319
vt 0.536829 0.119422
vt 0.519931 0.108131
vt 0.5 0.104167
vt 0.480069 0.108131
vt 0.463172 0.119422
vt 0.451881 0.136319
vt 0.447917 0.15625
vt 0.451881 0.176181
vt 0.463172 0.193078
vt 0.480069 0.204369
vt 0.5 0.208333
vt 0.519931 0.204369
vt 0.536828 0.193078
vt 0.548119 0.176181
vt 0.552083 0.15625
vt 0.572178 0.126353
vt 0.555243 0.101007
vt 0.529897 0.084072
vt 0.5 0.078125
vt 0.470103 0.084072
vt 0.444757 0.101007
vt 0.427822 0.126353
vt 0.421875 0.15625
vt 0.427822 0.186147
vt 0.444757 0.211493
vt 0.470103 0.228428
vt 0.5 0.234375
vt 0.529897 0.228428
vt 0.555243 0.211493
vt 0.572178 0.186147
vt 0.578125 0.15625
vt 0.596237 0.116387
vt 0.573657 0.082593
vt 0.539863 0.060013
vt 0.5 0.052083
vt 0.460137 0.060013
vt 0.426343 0.082593
vt 0.403763 0.116387
vt 0.395833 0.15625
vt 0.403763 0.196113
vt 0.426343 0.229907
vt 0.460137 0.252487
vt 0.5 0.260417
vt 0.539863 0.252487
vt 0.573657 0.229907
vt 0.596237 0.196113
vt 0.604167 0.15625
vt 0.620297 0.106422
vt 0.592071 0.064179
vt 0.549829 0.035953
vt 0.5 0.026042
vt 0.450172 0.035953
vt 0.407929 0.064179
vt 0.379703 0.106421
vt 0.369792 0.15625
vt 0.379703 0.206079
vt 0.407929 0.248321
vt 0.450171 0.276547
vt 0.5 0.286458
vt 0.549829 0.276547
vt 0.592071 0.248321
vt 0.620297 0.206079
vt 0.630208 0.15625
vt 0.644356 0.096456
vt 0.610485 0.045765
vt 0.559794 0.011894
vt 0.5 0
vt 0.440206 0.011894
vt 0.389515 0.045765
vt 0.355644 0.096456
vt 0.34375 0.15625
vt 0.355644 0.216044
vt 0.389515 0.266735
vt 0.440206 0.300606
vt 0.5 0.3125
vt 0.559794 0.300606
vt 0.610485 0.266735
vt 0.644356 0.216044
vt 0.65625 0.15625
vt 0.375 0.3125
vt 0.390625 0.3125
vt 0.40625 0.3125
vt 0.421875 0.3125
vt 0.4375 0.3125
vt 0.453125 0.3125
vt 0.46875 0.3125
vt 0.484375 0.3125
vt 0.515625 0.3125
vt 0.53125 0.3125
vt 0.546875 0.3125
vt 0.5625 0.3125
vt 0.578125 0.3125
vt 0.59375 0.3125
vt 0.609375 0.3125
vt 0.625 0.3125
vt 0.375 0.68844
vt 0.390625 0.68844
vt 0.40625 0.68844
vt 0.421875 0.68844
vt 0.4375 0.68844
vt 0.453125 0.68844
vt 0.46875 0.68844
vt 0.484375 0.68844
vt 0.5 0.68844
vt 0.515625 0.68844
vt 0.53125 0.68844
vt 0.546875 0.68844
vt 0.5625 0.68844
vt 0.578125 0.68844
vt 0.59375 0.68844
vt 0.609375 0.68844
vt 0.625 0.68844
vt 0.644356 0.783956
vt 0.610485 0.733265
vt 0.559794 0.699394
vt 0.440206 0.699394
vt 0.389515 0.733265
vt 0.355644 0.783956
vt 0.34375 0.84375
vt 0.355644 0.903544
vt 0.389515 0.954235
vt 0.440206 0.988106
vt 0.5 1
vt 0.559794 0.988106
vt 0.610485 0.954235
vt 0.644356 0.903544
vt 0.65625 0.84375
vt 0.620297 0.793921
vt 0.592071 0.751679
vt 0.549829 0.723453
vt 0.5 0.713542
vt 0.450172 0.723453
vt 0.407929 0.751679
vt 0.379703 0.793921
vt 0.369792 0.84375
vt 0.379703 0.893579
vt 0.407929 0.935821
vt 0.450171 0.964047
vt 0.5 0.973958
vt 0.549829 0.964047
vt 0.592071 0.935821
vt 0.620297 0.893579
vt 0.630208 0.84375
vt 0.5 0.15
vt 0.5 0.8375



# 130 vertex normals
vn 0.238966 0.96597 0.098984
vn 0.182897 0.96597 0.182898
vn 0.353376 0.86617 0.353376
vn 0.461708 0.86617 0.191246
vn 0.0989829 0.965969 0.238968
vn 0.191246 0.86617 0.461708
vn -1e-006 0.965969 0.258657
vn 0 0.86617 0.499749
vn -0.098984 0.965969 0.238968
vn -0.191246 0.86617 0.461708
vn -0.182899 0.965969 0.182898
vn -0.353376 0.86617 0.353376
vn -0.238967 0.965969 0.0989839
vn -0.461708 0.86617 0.191246
vn -0.258656 0.965969 -0
vn -0.49975 0.86617 -0
vn -0.238966 0.96597 -0.098984
vn -0.461708 0.86617 -0.191246
vn -0.182897 0.96597 -0.182898
vn -0.353376 0.86617 -0.353376
vn -0.0989829 0.965969 -0.238968
vn -0.191246 0.86617 -0.461708
vn 1e-006 0.965969 -0.258657
vn -0 0.86617 -0.499749
vn 0.098984 0.965969 -0.238968
vn 0.191246 0.86617 -0.461708
vn 0.182899 0.965969 -0.182898
vn 0.353376 0.86617 -0.353376
vn 0.238967 0.965969 -0.0989839
vn 0.461708 0.86617 -0.191246
vn 0.258656 0.965969 0
vn 0.49975 0.86617 0
vn 0.499835 0.70734 0.499835
vn 0.653066 0.70734 0.270509
vn 0.270509 0.70734 0.653066
vn 0 0.70734 0.706873
vn -0.270509 0.70734 0.653066
vn -0.499835 0.70734 0.499835
vn -0.653066 0.70734 0.270509
vn -0.706873 0.707341 0
vn -0.653066 0.70734 -0.270509
vn -0.499835 0.70734 -0.499835
vn -0.270509 0.70734 -0.653066
vn 0 0.70734 -0.706873
vn 0.270509 0.70734 -0.653066
vn 0.499835 0.70734 -0.499835
vn 0.653066 0.70734 -0.270509
vn 0.706873 0.707341 -0
vn 0.612272 0.500246 0.612272
vn 0.799972 0.500245 0.331359
vn 0.331359 0.500246 0.799972
vn -0 0.500245 0.865884
vn -0.331359 0.500246 0.799972
vn -0.612272 0.500246 0.612272
vn -0.799972 0.500245 0.331359
vn -0.865884 0.500245 0
vn -0.799972 0.500245 -0.331359
vn -0.612272 0.500246 -0.612272
vn -0.331359 0.500246 -0.799972
vn 0 0.500245 -0.865884
vn 0.331359 0.500246 -0.799972
vn 0.612272 0.500246 -0.612272
vn 0.799972 0.500245 -0.331359
vn 0.865884 0.500245 -0
vn 0.682983 0.258976 0.682983
vn 0.89236 0.258976 0.369628
vn 0.369628 0.258976 0.89236
vn 0 0.258976 0.965884
vn -0.369628 0.258976 0.89236
vn -0.682983 0.258976 0.682983
vn -0.89236 0.258976 0.369628
vn -0.965884 0.258976 0
vn -0.89236 0.258976 -0.369628
vn -0.682983 0.258976 -0.682983
vn -0.369628 0.258976 -0.89236
vn -0 0.258976 -0.965884
vn 0.369628 0.258976 -0.89236
vn 0.682983 0.258976 -0.682983
vn 0.89236 0.258976 -0.369628
vn 0.965884 0.258976 -0
vn 0.705593 0.065414 0.705592
vn 0.921901 0.065414 0.381864
vn 0.381864 0.065414 0.921901
vn 0 0.065414 0.997858
vn -0.381864 0.065414 0.921901
vn -0.705592 0.065414 0.705593
vn -0.921901 0.065414 0.381864
vn -0.997858 0.065414 0
vn -0.921901 0.065414 -0.381864
vn -0.705593 0.065414 -0.705592
vn -0.381864 0.065414 -0.921901
vn -0 0.065414 -0.997858
vn 0.381864 0.065414 -0.921901
vn 0.705592 0.065414 -0.705592
vn 0.921901 0.065414 -0.381864
vn 0.997858 0.065414 -0
vn 0.706469 -0.04248 0.706468
vn 0.923046 -0.04248 0.382338
vn 0.382338 -0.04248 0.923045
vn 0 -0.04248 0.999097
vn -0.382338 -0.04248 0.923046
vn -0.706468 -0.04248 0.706469
vn -0.923045 -0.04248 0.382338
vn -0.999097 -0.04248 0
vn -0.923046 -0.04248 -0.382338
vn -0.706469 -0.04248 -0.706468
vn -0.382338 -0.04248 -0.923045
vn -0 -0.04248 -0.999097
vn 0.382338 -0.04248 -0.923046
vn 0.706468 -0.04248 -0.706469
vn 0.923046 -0.04248 -0.382338
vn 0.999097 -0.04248 -0
vn 0.702041 -0.119485 0.702041
vn 0.917261 -0.119486 0.379942
vn 0.379942 -0.119485 0.917261
vn 0 -0.119486 0.992836
vn -0.379942 -0.119485 0.917261
vn -0.702041 -0.119486 0.702041
vn -0.917261 -0.119486 0.379942
vn -0.992836 -0.119486 0
vn -0.917261 -0.119486 -0.379942
vn -0.702041 -0.119486 -0.702041
vn -0.379942 -0.119485 -0.917261
vn -0 -0.119486 -0.992836
vn 0.379942 -0.119486 -0.917261
vn 0.702041 -0.119486 -0.702041
vn 0.917261 -0.119486 -0.379942
vn 0.992836 -0.119486 0
vn 0 1 -0
vn 0 -1 -0



# 1 face sets

# 144 faces
usemtl bolt
f 1/1/1 2/2/2 18/18/3 17/17/4
f 2/2/2 3/3/5 19/19/6 18/18/3
f 3/3/5 4/4/7 20/20/8 19/19/6
f 4/4/7 5/5/9 21/21/10 20/20/8
f 5/5/9 6/6/11 22/22/12 21/21/10
f 6/6/11 7/7/13 23/23/14 22/22/12
f 7/7/13 8/8/15 24/24/16 23/23/14
f 8/8/15 9/9/17 25/25/18 24/24/16
f 9/9/17 10/10/19 26/26/20 25/25/18
f 10/10/19 11/11/21 27/27/22 26/26/20
f 11/11/21 12/12/23 28/28/24 27/27/22
f 12/12/23 13/13/25 29/29/26 28/28/24
f 13/13/25 14/14/27 30/30/28 29/29/26
f 14/14/27 15/15/29 31/31/30 30/30/28
f 15/15/29 16/16/31 32/32/32 31/31/30
f 16/16/31 1/1/1 17/17/4 32/32/32
f 17/17/4 18/18/3 34/34/33 33/33/34
f 18/18/3 19/19/6 35/35/35 34/34/33
f 19/19/6 20/20/8 36/36/36 35/35/35
f 20/20/8 21/21/10 37/37/37 36/36/36
f 21/21/10 22/22/12 38/38/38 37/37/37
f 22/22/12 23/23/14 39/39/39 38/38/38
f 23/23/14 24/24/16 40/40/40 39/39/39
f 24/24/16 25/25/18 41/41/41 40/40/40
f 25/25/18 26/26/20 42/42/42 41/41/41
f 26/26/20 27/27/22 43/43/43 42/42/42
f 27/27/22 28/28/24 44/44/44 43/43/43
f 28/28/24 29/29/26 45/45/45 44/44/44
f 29/29/26 30/30/28 46/46/46 45/45/45
f 30/30/28 31/31/30 47/47/47 46/46/46
f 31/31/30 32/32/32 48/48/48 47/47/47
f 32/32/32 17/17/4 33/33/34 48/48/48
f 33/33/34 34/34/33 50/50/49 49/49/50
f 34/34/33 35/35/35 51/51/51 50/50/49
f 35/35/35 36/36/36 52/52/52 51/51/51
f 36/36/36 37/37/37 53/53/53 52/52/52
f 37/37/37 38/38/38 54/54/54 53/53/53
f 38/38/38 39/39/39 55/55/55 54/54/54
f 39/39/39 40/40/40 56/56/56 55/55/55
f 40/40/40 41/41/41 57/57/57 56/56/56
f 41/41/41 42/42/42 58/58/58 57/57/57
f 42/42/42 43/43/43 59/59/59 58/58/58
f 43/43/43 44/44/44 60/60/60 59/59/59
f 44/44/44 45/45/45 61/61/61 60/60/60
f 45/45/45 46/46/46 62/62/62 61/61/61
f 46/46/46 47/47/47 63/63/63 62/62/62
f 47/47/47 48/48/48 64/64/64 63/63/63
f 48/48/48 33/33/34 49/49/50 64/64/64
f 49/49/50 50/50/49 66/66/65 65/65/66
f 50/50/49 51/51/51 67/67/67 66/66/65
f 51/51/51 52/52/52 68/68/68 67/67/67
f 52/52/52 53/53/53 69/69/69 68/68/68
f 53/53/53 54/54/54 70/70/70 69/69/69
f 54/54/54 55/55/55 71/71/71 70/70/70
f 55/55/55 56/56/56 72/72/72 71/71/71
f 56/56/56 57/57/57 73/73/73 72/72/72
f 57/57/57 58/58/58 74/74/74 73/73/73
f 58/58/58 59/59/59 75/75/75 74/74/74
f 59/59/59 60/60/60 76/76/76 75/75/75
f 60/60/60 61/61/61 77/77/77 76/76/76
f 61/61/61 62/62/62 78/78/78 77/77/77
f 62/62/62 63/63/63 79/79/79 78/78/78
f 63/63/63 64/64/64 80/80/80 79/79/79
f 64/64/64 49/49/50 65/65/66 80/80/80
f 65/65/66 66/66/65 82/82/81 81/81/82
f 66/66/65 67/67/67 83/83/83 82/82/81
f 67/67/67 68/68/68 84/84/84 83/83/83
f 68/68/68 69/69/69 85/85/85 84/84/84
f 69/69/69 70/70/70 86/86/86 85/85/85
f 70/70/70 71/71/71 87/87/87 86/86/86
f 71/71/71 72/72/72 88/88/88 87/87/87
f 72/72/72 73/73/73 89/89/89 88/88/88
f 73/73/73 74/74/74 90/90/90 89/89/89
f 74/74/74 75/75/75 91/91/91 90/90/90
f 75/75/75 76/76/76 92/92/92 91/91/91
f 76/76/76 77/77/77 93/93/93 92/92/92
f 77/77/77 78/78/78 94/94/94 93/93/93
f 78/78/78 79/79/79 95/95/95 94/94/94
f 79/79/79 80/80/80 96/96/96 95/95/95
f 80/80/80 65/65/66 81/81/82 96/96/96
f 81/97/82 82/98/81 98/114/97 97/113/98
f 82/98/81 83/99/83 99/115/99 98/114/97
f 83/99/83 84/100/84 100/116/100 99/115/99
f 84/100/84 85/101/85 101/117/101 100/116/100
f 85/101/85 86/102/86 102/118/102 101/117/101
f 86/102/86 87/103/87 103/119/103 102/118/102
f 87/103/87 88/104/88 104/120/104 103/119/103
f 88/104/88 89/92/89 105/121/105 104/120/104
f 89/92/89 90/105/90 106/122/106 105/121/105
f 90/105/90 91/106/91 107/123/107 106/122/106
f 91/106/91 92/107/92 108/124/108 107/123/107
f 92/107/92 93/108/93 109/125/109 108/124/108
f 93/108/93 94/109/94 110/126/110 109/125/109
f 94/109/94 95/110/95 111/127/111 110/126/110
f 95/110/95 96/111/96 112/128/112 111/127/111
f 96/111/96 81/112/82 97/129/98 112/128/112
f 97/143/98 98/142/97 114/158/113 113/159/114
f 98/142/97 99/141/99 115/157/115 114/158/113
f 99/141/99 100/140/100 116/156/116 115/157/115
f 100/140/100 101/139/101 117/155/117 116/156/116
f 101/139/101 102/138/102 118/154/118 117/155/117
f 102/138/102 103/137/103 119/153/119 118/154/118
f 103/137/103 104/136/104 120/152/120 119/153/119
f 104/136/104 105/135/105 121/151/121 120/152/120
f 105/135/105 106/134/106 122/150/122 121/151/121
f 106/134/106 107/133/107 123/149/123 122/150/122
f 107/133/107 108/121/108 124/148/124 123/149/123
f 108/121/108 109/132/109 125/147/125 124/148/124
f 109/132/109 110/131/110 126/146/126 125/147/125
f 110/131/110 111/130/111 127/145/127 126/146/126
f 111/130/111 112/144/112 128/160/128 127/145/127
f 112/144/112 97/143/98 113/159/114 128/160/128
f 2/2/2 1/1/1 129/161/129
f 3/3/5 2/2/2 129/161/129
f 4/4/7 3/3/5 129/161/129
f 5/5/9 4/4/7 129/161/129
f 6/6/11 5/5/9 129/161/129
f 7/7/13 6/6/11 129/161/129
f 8/8/15 7/7/13 129/161/129
f 9/9/17 8/8/15 129/161/129
f 10/10/19 9/9/17 129/161/129
f 11/11/21 10/10/19 129/161/129
f 12/12/23 11/11/21 129/161/129
f 13/13/25 12/12/23 129/161/129
f 14/14/27 13/13/25 129/161/129
f 15/15/29 14/14/27 129/161/129
f 16/16/31 15/15/29 129/161/129
f 1/1/1 16/16/31 129/161/129
f 114/158/113 130/162/130 113/159/114
f 115/157/115 130/162/130 114/158/113
f 116/156/116 130/162/130 115/157/115
f 117/155/117 130/162/130 116/156/116
f 118/154/118 130/162/130 117/155/117
f 119/153/119 130/162/130 118/154/118
f 120/152/120 130/162/130 119/153/119
f 121/151/121 130/162/130 120/152/120
f 122/150/122 130/162/130 121/151/121
f 123/149/123 130/162/130 122/150/122
f 124/148/124 130/162/130 123/149/123
f 125/147/125 130/162/130 124/148/124
f 126/146/126 130/162/130 125/147/125
f 127/145/127 130/162/130 126/146/126
f 128/160/128 130/162/130 127/145/127
f 113/159/114 130/162/130 128/160/128




# End of Bolt.obj

