#
# Missile.obj
#
# 18 vertices
# 11 texture coordinate pairs
# 17 vertex normals
# 18 in 1 face sets
#



# 1 material libraries
mtllib Missile.mtl



# 18 vertices
v -0.433013 1 -0.25
v 0.433013 1 -0.25
v 0 1 0.5
v -0.433013 -2 -0.25
v 0.433013 -2 -0.25
v -0 -2 0.5
v 0 2 0
v -0 -2 -0
v 0 -1 0.5
v -0 -2 1.5
v 0.086603 1.8 -0.05
v -0.086603 1.8 -0.05
v 0 1.8 0.1
v -0 3 -0
v -0.433013 -1 -0.25
v -1.29904 -2 -0.75
v 0.433013 -1 -0.25
v 1.29904 -2 -0.75



# 11 texture coordinate pairs
vt 0.5 1
vt 0 1
vt 0 0
vt 0.5 0
vt 1 0.25
vt 0.75 0.75
vt 0.75 0.5
vt 1 1
vt 0.5 0.25
vt 1 0.75
vt 0.5 0.75



# 17 vertex normals
vn -0 0 -1
vn 0.866025 -0 0.5
vn -0.866025 -0 0.5
vn 0.774597 0.447214 -0.447214
vn -0.774597 0.447214 -0.447214
vn -0 1 0
vn 0 0.447214 0.894427
vn -0 -1 -0
vn 1 -0 0
vn 0 0.041631 -0.999133
vn -0.865275 0.041631 0.499566
vn 0.865275 0.041631 0.499567
vn -0.5 0 0.866025
vn -0.5 -0 -0.866025
vn 0.5 -0 -0.866025
vn 0.5 0 0.866025
vn -1 0 -0



# 1 face sets

# 18 faces
usemtl missile
f 1/2/1 2/1/1 5/4/1 4/3/1
f 2/1/2 3/2/2 6/3/2 5/4/2
f 3/2/3 1/1/3 4/4/3 6/3/3
f 2/1/4 1/8/5 7/6/6
f 3/1/7 2/8/4 7/6/6
f 1/1/5 3/8/7 7/6/6
f 4/5/8 5/9/8 8/7/8
f 5/5/8 6/9/8 8/7/8
f 6/5/8 4/9/8 8/7/8
f 6/9/9 9/5/9 10/4/9
f 11/10/10 12/11/10 14/7/10
f 12/11/11 13/10/11 14/7/11
f 13/10/12 11/11/12 14/7/12
f 4/9/13 15/5/13 16/4/13
f 5/9/14 17/5/14 18/4/14
f 4/9/15 16/4/15 15/5/15
f 5/9/16 18/4/16 17/5/16
f 6/9/17 10/4/17 9/5/17




# End of Missile.obj

