# This file uses centimeters as units for non-parametric coordinates.

mtllib Skybox.mtl
v -5.000000 -5.000000 5.000000
v 5.000000 -5.000000 5.000000
v -5.000000 5.000000 5.000000
v 5.000000 5.000000 5.000000
v -5.000000 5.000000 -5.000000
v 5.000000 5.000000 -5.000000
v -5.000000 -5.000000 -5.000000
v 5.000000 -5.000000 -5.000000
vt 0.251000 0.666000
vt 0.251000 0.334000
vt 0.499000 0.666000
vt 0.499000 0.334000
vt 0.750000 0.666000
vt 0.750000 0.334000
vt 0.000000 0.666000
vt 1.000000 0.334000
vt 0.000000 0.334000
vt 1.000000 0.666000
vt 0.251000 0.001000
vt 0.499000 0.001000
vt 0.251000 0.999000
vt 0.499000 0.999000
vn 0.000000 0.000000 -1.000000
vn 0.000000 -1.000000 0.000000
vn 0.000000 0.000000 1.000000
vn 0.000000 1.000000 0.000000
vn -1.000000 0.000000 0.000000
vn 1.000000 0.000000 0.000000
usemtl skybox1
f 1/1/1  3/3/1  4/4/1  2/2/1
f 3/3/2  5/5/2  6/6/2  4/4/2
f 5/5/3  7/10/3 8/8/3  6/6/3
f 7/7/4  1/1/4  2/2/4  8/9/4
f 2/2/5  4/4/5  6/12/5 8/11/5
f 7/13/6 5/14/6 3/3/6  1/1/6
